<svg width="138" height="32" viewBox="0 0 138 32" fill="none" xmlns="http://www.w3.org/2000/svg">
<path d="M37.1703 1.65571C48.0212 -3.04433 55.434 2.97966 54.9507 10.7322C54.4941 17.9446 51.0832 23.2122 46.8663 27.0751C44.5833 29.1821 42.9179 29.128 41.7092 29.9383C47.6718 26.0216 51.3246 18.2963 51.2979 12.6236C51.2442 5.60033 46.1412 1.25092 37.251 5.24866C30.5361 8.27409 25.5672 14.1363 25.4597 21.6189C25.3525 28.1827 30.2135 30.9106 36.9281 28.5337C43.2669 25.6433 43.1062 22.429 43.1062 21.2134C43.0793 19.3765 41.602 18.5392 39.8562 19.2415C37.8954 20.0249 36.7939 21.6727 36.8208 23.4556C36.8746 25.6165 39.5341 25.2384 39.5341 25.2384C34.006 29.1329 32.6466 25.1758 32.6313 25.1306L32.5506 10.3814C35.3539 9.25378 36.2995 11.4621 36.3107 11.4885L36.3374 17.9447C40.6079 14.1629 43.9922 15.2706 45.2546 16.6212C47.4839 19.0254 45.8991 24.4552 41.8165 27.6157C40.9304 28.3179 40.1517 28.8312 39.4534 29.2634C39.4793 29.2893 39.5049 29.3154 39.5067 29.3173C29.0317 35.0708 20.84 31.2621 21.9143 20.8353C22.8007 12.3262 29.7302 4.87024 37.1703 1.65571ZM5.8482 13.8759C8.22403 13.8759 9.76478 14.283 10.5219 15.0158C11.2528 15.8029 11.6181 17.4858 11.6181 20.0095C11.618 22.8318 11.2788 24.7043 10.5478 25.5728C9.84285 26.4683 8.32847 26.9024 6.00491 26.9024C3.4987 26.9024 1.85388 26.4954 1.12279 25.6813C0.365653 24.8672 0 23.0759 0 20.2806C2.93594e-06 17.621 0.365124 15.8838 1.09615 15.0697C1.82717 14.2827 3.42016 13.8759 5.8482 13.8759ZM19.0357 8.49551C19.3573 8.49551 19.7862 8.49575 20.3222 8.52285V10.908C19.9203 10.8267 19.5718 10.7729 19.277 10.7728C17.9635 10.7728 17.2931 11.4507 17.2931 12.7791V14.1345L20.4021 14.1072V16.4384H17.2665V26.9024H14.2374V16.4658H12.4682V14.1345H14.2374V12.7791C14.2374 11.1527 14.5858 10.0409 15.2826 9.41738C15.9795 8.79387 17.2129 8.49551 19.0357 8.49551ZM58.797 21.9814C58.797 23.0284 58.955 23.709 59.2444 24.0493C59.5339 24.3895 60.139 24.5462 61.0598 24.5462C62.9542 24.5462 63.9016 23.421 63.9016 21.1439V14.4689H66.8751V26.7712H63.9016L64.0591 24.6509L64.0066 24.6251C63.4277 26.1433 62.1121 26.9024 60.0334 26.9024C57.2181 26.9024 55.8235 25.515 55.8235 22.7142V14.4423H58.797V21.9814ZM74.7949 14.4423C76.8458 14.4423 78.2399 14.7005 78.95 15.1658C79.6599 15.6569 80.0281 16.5879 80.0281 17.958H77.1353C77.1353 17.8546 77.1095 17.7768 77.1095 17.7251C77.0569 17.1566 76.8987 16.7951 76.6096 16.64C76.3466 16.5107 75.663 16.433 74.585 16.433C73.0336 16.433 72.2712 16.9241 72.2712 17.9064C72.2712 18.5784 72.4024 18.9662 72.6653 19.0954C72.9283 19.2247 73.8488 19.328 75.4265 19.4056C77.53 19.509 78.9238 19.7935 79.5548 20.2329C80.1858 20.6982 80.5009 21.6029 80.4747 22.9728C80.4747 24.4461 80.0545 25.4806 79.2132 26.0493C78.3718 26.618 76.8462 26.9024 74.6375 26.9024C72.5076 26.9024 71.0617 26.6436 70.2991 26.1267C69.5365 25.6096 69.1418 24.6532 69.1418 23.2314V22.9212H72.2187C72.1661 23.1022 72.1396 23.2319 72.1396 23.3353C72.0083 24.395 72.8499 24.9376 74.6641 24.9376C76.5307 24.9375 77.4776 24.3949 77.4777 23.3353C77.4777 22.3271 76.8989 21.8095 75.7156 21.8095C73.0601 21.8095 71.3248 21.5513 70.4832 21.0603C69.6418 20.5691 69.221 19.5606 69.221 18.0095C69.221 16.6139 69.6152 15.6835 70.3775 15.1923C71.14 14.7012 72.6126 14.4424 74.7949 14.4423ZM85.2941 14.4423V26.9024H82.4601V14.4423H85.2941ZM94.4417 14.4423C97.4021 14.4424 98.8953 15.8036 98.8953 18.5259V26.9024H95.8819V19.0236L95.8286 18.1595C95.6686 17.2434 94.9485 16.7721 93.6151 16.772C91.5882 16.772 90.5743 17.7146 90.5743 19.5993V26.9024H87.5609V14.5994H90.5476L90.4411 16.6673H90.4944C91.0811 15.1753 92.4148 14.4423 94.4417 14.4423ZM106.835 14.4423C109.089 14.4423 110.592 14.8309 111.343 15.6337C112.121 16.4368 112.497 17.9914 112.497 20.3228V21.2032H103.965C103.938 21.4882 103.938 21.6701 103.938 21.7478C103.938 22.9391 104.126 23.742 104.501 24.1306C104.877 24.5191 105.628 24.7267 106.782 24.7267C107.909 24.7267 108.634 24.5973 108.956 24.3642C109.305 24.131 109.465 23.6382 109.465 22.861H112.497V23.3275C112.497 25.7107 110.646 26.9024 106.943 26.9024C104.448 26.9024 102.811 26.4876 102.033 25.6587C101.255 24.8298 100.879 23.0946 100.879 20.4267C100.879 18.0694 101.282 16.4626 102.087 15.6595C102.918 14.8566 104.501 14.4424 106.835 14.4423ZM119.567 14.4423C121.618 14.4423 123.012 14.7005 123.722 15.1658C124.432 15.6569 124.8 16.5879 124.8 17.958H121.907C121.907 17.8546 121.881 17.7768 121.881 17.7251C121.829 17.1566 121.671 16.7951 121.382 16.64C121.119 16.5107 120.435 16.433 119.357 16.433C117.806 16.433 117.043 16.9241 117.043 17.9064C117.043 18.5784 117.174 18.9662 117.437 19.0954C117.7 19.2247 118.621 19.328 120.198 19.4056C122.302 19.509 123.696 19.7935 124.327 20.2329C124.958 20.6982 125.273 21.6029 125.247 22.9728C125.247 24.4461 124.826 25.4806 123.985 26.0493C123.144 26.618 121.618 26.9024 119.409 26.9024C117.28 26.9024 115.86 26.6436 115.071 26.1267C114.309 25.6096 113.914 24.6532 113.914 23.2314V22.9212H116.991C116.938 23.1022 116.912 23.2319 116.912 23.3353C116.78 24.395 117.622 24.9376 119.436 24.9376C121.303 24.9375 122.25 24.3949 122.25 23.3353C122.25 22.3271 121.671 21.8095 120.488 21.8095C117.832 21.8095 116.097 21.5513 115.255 21.0603C114.414 20.5691 113.993 19.5606 113.993 18.0095C113.993 16.6139 114.387 15.6835 115.149 15.1923C115.912 14.7012 117.385 14.4424 119.567 14.4423ZM132.319 14.4423C134.37 14.4423 135.764 14.7005 136.474 15.1658C137.184 15.6569 137.552 16.5879 137.552 17.958H134.659C134.659 17.8546 134.633 17.7768 134.633 17.7251C134.581 17.1566 134.423 16.7951 134.133 16.64C133.87 16.5107 133.187 16.433 132.109 16.433C130.557 16.433 129.795 16.9241 129.795 17.9064C129.795 18.5784 129.926 18.9662 130.189 19.0954C130.452 19.2247 131.373 19.328 132.95 19.4056C135.054 19.509 136.448 19.7935 137.079 20.2329C137.71 20.6982 138.025 21.6029 137.998 22.9728C137.998 24.4461 137.578 25.4806 136.737 26.0493C135.896 26.618 134.37 26.9024 132.161 26.9024C130.031 26.9024 128.612 26.6436 127.823 26.1267C127.06 25.6096 126.666 24.6532 126.666 23.2314V22.9212H129.743C129.69 23.1022 129.663 23.2319 129.663 23.3353C129.532 24.395 130.374 24.9376 132.188 24.9376C134.055 24.9375 135.001 24.3949 135.002 23.3353C135.002 22.3271 134.423 21.8095 133.239 21.8095C130.584 21.8095 128.849 21.5513 128.007 21.0603C127.166 20.5691 126.745 19.5606 126.745 18.0095C126.745 16.6139 127.139 15.6835 127.901 15.1923C128.664 14.7012 130.136 14.4424 132.319 14.4423ZM5.96338 16.4251C4.73604 16.4252 3.95233 16.6418 3.61282 17.1025C3.2733 17.5632 3.11685 18.6205 3.11685 20.3009C3.11685 22.2251 3.27359 23.4177 3.58696 23.9056C3.90035 24.3934 4.70989 24.6376 5.96338 24.6376C7.19087 24.6376 7.97469 24.3932 8.28809 23.8782C8.60137 23.3631 8.78406 22.1436 8.78406 20.2197C8.78406 18.5935 8.62761 17.5632 8.28809 17.1025C7.94853 16.6418 7.16466 16.4251 5.96338 16.4251ZM106.648 16.708C105.546 16.708 104.837 16.8899 104.495 17.2275C104.154 17.5652 103.996 18.3451 103.996 19.5142L109.38 19.54L109.354 19.0462C109.354 18.0592 109.196 17.436 108.855 17.1501C108.513 16.8644 107.778 16.708 106.648 16.708Z" fill="white"/>
</svg>
